<?xml version="1.0" encoding="utf-8" standalone="no"?>
<!DOCTYPE svg PUBLIC "-//W3C//DTD SVG 1.1//EN"
  "http://www.w3.org/Graphics/SVG/1.1/DTD/svg11.dtd">
<svg xmlns:xlink="http://www.w3.org/1999/xlink" width="798.833125pt" height="311.24425pt" viewBox="0 0 798.833125 311.24425" xmlns="http://www.w3.org/2000/svg" version="1.1">
 <metadata>
  <rdf:RDF xmlns:dc="http://purl.org/dc/elements/1.1/" xmlns:cc="http://creativecommons.org/ns#" xmlns:rdf="http://www.w3.org/1999/02/22-rdf-syntax-ns#">
   <cc:Work>
    <dc:type rdf:resource="http://purl.org/dc/dcmitype/StillImage"/>
    <dc:date>2026-06-03T00:46:11.361655</dc:date>
    <dc:format>image/svg+xml</dc:format>
    <dc:creator>
     <cc:Agent>
      <dc:title>Matplotlib v3.10.8, https://matplotlib.org/</dc:title>
     </cc:Agent>
    </dc:creator>
   </cc:Work>
  </rdf:RDF>
 </metadata>
 <defs>
  <style type="text/css">*{stroke-linejoin: round; stroke-linecap: butt}</style>
 </defs>
 <g id="figure_1">
  <g id="patch_1">
   <path d="M 0 311.24425 
L 798.833125 311.24425 
L 798.833125 0 
L 0 0 
z
" style="fill: #ffffff"/>
  </g>
  <g id="axes_1">
   <g id="patch_2">
    <path d="M 40.603125 273.688 
L 390.683125 273.688 
L 390.683125 63.888 
L 40.603125 63.888 
z
" style="fill: #ffffff"/>
   </g>
   <g id="patch_3">
    <path d="M 56.515852 273.688 
L 109.558277 273.688 
L 109.558277 103.222836 
L 56.515852 103.222836 
z
" clip-path="url(#p8c513cd14c)" style="fill: #72b7b2; opacity: 0.9"/>
   </g>
   <g id="patch_4">
    <path d="M 122.818883 273.688 
L 175.861307 273.688 
L 175.861307 90.772347 
L 122.818883 90.772347 
z
" clip-path="url(#p8c513cd14c)" style="fill: #72b7b2; opacity: 0.9"/>
   </g>
   <g id="patch_5">
    <path d="M 189.121913 273.688 
L 242.164337 273.688 
L 242.164337 103.222836 
L 189.121913 103.222836 
z
" clip-path="url(#p8c513cd14c)" style="fill: #72b7b2; opacity: 0.9"/>
   </g>
   <g id="patch_6">
    <path d="M 255.424943 273.688 
L 308.467367 273.688 
L 308.467367 110.041443 
L 255.424943 110.041443 
z
" clip-path="url(#p8c513cd14c)" style="fill: #72b7b2; opacity: 0.9"/>
   </g>
   <g id="patch_7">
    <path d="M 321.727973 273.688 
L 374.770398 273.688 
L 374.770398 112.59842 
L 321.727973 112.59842 
z
" clip-path="url(#p8c513cd14c)" style="fill: #72b7b2; opacity: 0.9"/>
   </g>
   <g id="matplotlib.axis_1">
    <g id="xtick_1">
     <g id="line2d_1">
      <path d="M 83.037064 273.688 
L 83.037064 63.888 
" clip-path="url(#p8c513cd14c)" style="fill: none; stroke: #b0b0b0; stroke-opacity: 0.25; stroke-width: 0.8; stroke-linecap: square"/>
     </g>
     <g id="line2d_2">
      <defs>
       <path id="maa855cd703" d="M 0 0 
L 0 3.5 
" style="stroke: #000000; stroke-width: 0.8"/>
      </defs>
      <g>
       <use xlink:href="#maa855cd703" x="83.037064" y="273.688" style="stroke: #000000; stroke-width: 0.8"/>
      </g>
     </g>
     <g id="text_1">
      <!-- 0 -->
      <g transform="translate(79.855814 288.286438) scale(0.1 -0.1)">
       <defs>
        <path id="DejaVuSans-30" d="M 2034 4250 
Q 1547 4250 1301 3770 
Q 1056 3291 1056 2328 
Q 1056 1369 1301 889 
Q 1547 409 2034 409 
Q 2525 409 2770 889 
Q 3016 1369 3016 2328 
Q 3016 3291 2770 3770 
Q 2525 4250 2034 4250 
z
M 2034 4750 
Q 2819 4750 3233 4129 
Q 3647 3509 3647 2328 
Q 3647 1150 3233 529 
Q 2819 -91 2034 -91 
Q 1250 -91 836 529 
Q 422 1150 422 2328 
Q 422 3509 836 4129 
Q 1250 4750 2034 4750 
z
" transform="scale(0.015625)"/>
       </defs>
       <use xlink:href="#DejaVuSans-30"/>
      </g>
     </g>
    </g>
    <g id="xtick_2">
     <g id="line2d_3">
      <path d="M 149.340095 273.688 
L 149.340095 63.888 
" clip-path="url(#p8c513cd14c)" style="fill: none; stroke: #b0b0b0; stroke-opacity: 0.25; stroke-width: 0.8; stroke-linecap: square"/>
     </g>
     <g id="line2d_4">
      <g>
       <use xlink:href="#maa855cd703" x="149.340095" y="273.688" style="stroke: #000000; stroke-width: 0.8"/>
      </g>
     </g>
     <g id="text_2">
      <!-- 1 -->
      <g transform="translate(146.158845 288.286438) scale(0.1 -0.1)">
       <defs>
        <path id="DejaVuSans-31" d="M 794 531 
L 1825 531 
L 1825 4091 
L 703 3866 
L 703 4441 
L 1819 4666 
L 2450 4666 
L 2450 531 
L 3481 531 
L 3481 0 
L 794 0 
L 794 531 
z
" transform="scale(0.015625)"/>
       </defs>
       <use xlink:href="#DejaVuSans-31"/>
      </g>
     </g>
    </g>
    <g id="xtick_3">
     <g id="line2d_5">
      <path d="M 215.643125 273.688 
L 215.643125 63.888 
" clip-path="url(#p8c513cd14c)" style="fill: none; stroke: #b0b0b0; stroke-opacity: 0.25; stroke-width: 0.8; stroke-linecap: square"/>
     </g>
     <g id="line2d_6">
      <g>
       <use xlink:href="#maa855cd703" x="215.643125" y="273.688" style="stroke: #000000; stroke-width: 0.8"/>
      </g>
     </g>
     <g id="text_3">
      <!-- 2 -->
      <g transform="translate(212.461875 288.286438) scale(0.1 -0.1)">
       <defs>
        <path id="DejaVuSans-32" d="M 1228 531 
L 3431 531 
L 3431 0 
L 469 0 
L 469 531 
Q 828 903 1448 1529 
Q 2069 2156 2228 2338 
Q 2531 2678 2651 2914 
Q 2772 3150 2772 3378 
Q 2772 3750 2511 3984 
Q 2250 4219 1831 4219 
Q 1534 4219 1204 4116 
Q 875 4013 500 3803 
L 500 4441 
Q 881 4594 1212 4672 
Q 1544 4750 1819 4750 
Q 2544 4750 2975 4387 
Q 3406 4025 3406 3419 
Q 3406 3131 3298 2873 
Q 3191 2616 2906 2266 
Q 2828 2175 2409 1742 
Q 1991 1309 1228 531 
z
" transform="scale(0.015625)"/>
       </defs>
       <use xlink:href="#DejaVuSans-32"/>
      </g>
     </g>
    </g>
    <g id="xtick_4">
     <g id="line2d_7">
      <path d="M 281.946155 273.688 
L 281.946155 63.888 
" clip-path="url(#p8c513cd14c)" style="fill: none; stroke: #b0b0b0; stroke-opacity: 0.25; stroke-width: 0.8; stroke-linecap: square"/>
     </g>
     <g id="line2d_8">
      <g>
       <use xlink:href="#maa855cd703" x="281.946155" y="273.688" style="stroke: #000000; stroke-width: 0.8"/>
      </g>
     </g>
     <g id="text_4">
      <!-- 3 -->
      <g transform="translate(278.764905 288.286438) scale(0.1 -0.1)">
       <defs>
        <path id="DejaVuSans-33" d="M 2597 2516 
Q 3050 2419 3304 2112 
Q 3559 1806 3559 1356 
Q 3559 666 3084 287 
Q 2609 -91 1734 -91 
Q 1441 -91 1130 -33 
Q 819 25 488 141 
L 488 750 
Q 750 597 1062 519 
Q 1375 441 1716 441 
Q 2309 441 2620 675 
Q 2931 909 2931 1356 
Q 2931 1769 2642 2001 
Q 2353 2234 1838 2234 
L 1294 2234 
L 1294 2753 
L 1863 2753 
Q 2328 2753 2575 2939 
Q 2822 3125 2822 3475 
Q 2822 3834 2567 4026 
Q 2313 4219 1838 4219 
Q 1578 4219 1281 4162 
Q 984 4106 628 3988 
L 628 4550 
Q 988 4650 1302 4700 
Q 1616 4750 1894 4750 
Q 2613 4750 3031 4423 
Q 3450 4097 3450 3541 
Q 3450 3153 3228 2886 
Q 3006 2619 2597 2516 
z
" transform="scale(0.015625)"/>
       </defs>
       <use xlink:href="#DejaVuSans-33"/>
      </g>
     </g>
    </g>
    <g id="xtick_5">
     <g id="line2d_9">
      <path d="M 348.249186 273.688 
L 348.249186 63.888 
" clip-path="url(#p8c513cd14c)" style="fill: none; stroke: #b0b0b0; stroke-opacity: 0.25; stroke-width: 0.8; stroke-linecap: square"/>
     </g>
     <g id="line2d_10">
      <g>
       <use xlink:href="#maa855cd703" x="348.249186" y="273.688" style="stroke: #000000; stroke-width: 0.8"/>
      </g>
     </g>
     <g id="text_5">
      <!-- 4 -->
      <g transform="translate(345.067936 288.286438) scale(0.1 -0.1)">
       <defs>
        <path id="DejaVuSans-34" d="M 2419 4116 
L 825 1625 
L 2419 1625 
L 2419 4116 
z
M 2253 4666 
L 3047 4666 
L 3047 1625 
L 3713 1625 
L 3713 1100 
L 3047 1100 
L 3047 0 
L 2419 0 
L 2419 1100 
L 313 1100 
L 313 1709 
L 2253 4666 
z
" transform="scale(0.015625)"/>
       </defs>
       <use xlink:href="#DejaVuSans-34"/>
      </g>
     </g>
    </g>
    <g id="text_6">
     <!-- fold -->
     <g transform="translate(206.260313 301.964562) scale(0.1 -0.1)">
      <defs>
       <path id="DejaVuSans-66" d="M 2375 4863 
L 2375 4384 
L 1825 4384 
Q 1516 4384 1395 4259 
Q 1275 4134 1275 3809 
L 1275 3500 
L 2222 3500 
L 2222 3053 
L 1275 3053 
L 1275 0 
L 697 0 
L 697 3053 
L 147 3053 
L 147 3500 
L 697 3500 
L 697 3744 
Q 697 4328 969 4595 
Q 1241 4863 1831 4863 
L 2375 4863 
z
" transform="scale(0.015625)"/>
       <path id="DejaVuSans-6f" d="M 1959 3097 
Q 1497 3097 1228 2736 
Q 959 2375 959 1747 
Q 959 1119 1226 758 
Q 1494 397 1959 397 
Q 2419 397 2687 759 
Q 2956 1122 2956 1747 
Q 2956 2369 2687 2733 
Q 2419 3097 1959 3097 
z
M 1959 3584 
Q 2709 3584 3137 3096 
Q 3566 2609 3566 1747 
Q 3566 888 3137 398 
Q 2709 -91 1959 -91 
Q 1206 -91 779 398 
Q 353 888 353 1747 
Q 353 2609 779 3096 
Q 1206 3584 1959 3584 
z
" transform="scale(0.015625)"/>
       <path id="DejaVuSans-6c" d="M 603 4863 
L 1178 4863 
L 1178 0 
L 603 0 
L 603 4863 
z
" transform="scale(0.015625)"/>
       <path id="DejaVuSans-64" d="M 2906 2969 
L 2906 4863 
L 3481 4863 
L 3481 0 
L 2906 0 
L 2906 525 
Q 2725 213 2448 61 
Q 2172 -91 1784 -91 
Q 1150 -91 751 415 
Q 353 922 353 1747 
Q 353 2572 751 3078 
Q 1150 3584 1784 3584 
Q 2172 3584 2448 3432 
Q 2725 3281 2906 2969 
z
M 947 1747 
Q 947 1113 1208 752 
Q 1469 391 1925 391 
Q 2381 391 2643 752 
Q 2906 1113 2906 1747 
Q 2906 2381 2643 2742 
Q 2381 3103 1925 3103 
Q 1469 3103 1208 2742 
Q 947 2381 947 1747 
z
" transform="scale(0.015625)"/>
      </defs>
      <use xlink:href="#DejaVuSans-66"/>
      <use xlink:href="#DejaVuSans-6f" transform="translate(35.205078 0)"/>
      <use xlink:href="#DejaVuSans-6c" transform="translate(96.386719 0)"/>
      <use xlink:href="#DejaVuSans-64" transform="translate(124.169922 0)"/>
     </g>
    </g>
   </g>
   <g id="matplotlib.axis_2">
    <g id="ytick_1">
     <g id="line2d_11">
      <path d="M 40.603125 273.688 
L 390.683125 273.688 
" clip-path="url(#p8c513cd14c)" style="fill: none; stroke: #b0b0b0; stroke-opacity: 0.25; stroke-width: 0.8; stroke-linecap: square"/>
     </g>
     <g id="line2d_12">
      <defs>
       <path id="mfdf5e022bd" d="M 0 0 
L -3.5 0 
" style="stroke: #000000; stroke-width: 0.8"/>
      </defs>
      <g>
       <use xlink:href="#mfdf5e022bd" x="40.603125" y="273.688" style="stroke: #000000; stroke-width: 0.8"/>
      </g>
     </g>
     <g id="text_7">
      <!-- 0 -->
      <g transform="translate(27.240625 277.487219) scale(0.1 -0.1)">
       <use xlink:href="#DejaVuSans-30"/>
      </g>
     </g>
    </g>
    <g id="ytick_2">
     <g id="line2d_13">
      <path d="M 40.603125 250.376889 
L 390.683125 250.376889 
" clip-path="url(#p8c513cd14c)" style="fill: none; stroke: #b0b0b0; stroke-opacity: 0.25; stroke-width: 0.8; stroke-linecap: square"/>
     </g>
     <g id="line2d_14">
      <g>
       <use xlink:href="#mfdf5e022bd" x="40.603125" y="250.376889" style="stroke: #000000; stroke-width: 0.8"/>
      </g>
     </g>
     <g id="text_8">
      <!-- 5 -->
      <g transform="translate(27.240625 254.176108) scale(0.1 -0.1)">
       <defs>
        <path id="DejaVuSans-35" d="M 691 4666 
L 3169 4666 
L 3169 4134 
L 1269 4134 
L 1269 2991 
Q 1406 3038 1543 3061 
Q 1681 3084 1819 3084 
Q 2600 3084 3056 2656 
Q 3513 2228 3513 1497 
Q 3513 744 3044 326 
Q 2575 -91 1722 -91 
Q 1428 -91 1123 -41 
Q 819 9 494 109 
L 494 744 
Q 775 591 1075 516 
Q 1375 441 1709 441 
Q 2250 441 2565 725 
Q 2881 1009 2881 1497 
Q 2881 1984 2565 2268 
Q 2250 2553 1709 2553 
Q 1456 2553 1204 2497 
Q 953 2441 691 2322 
L 691 4666 
z
" transform="scale(0.015625)"/>
       </defs>
       <use xlink:href="#DejaVuSans-35"/>
      </g>
     </g>
    </g>
    <g id="ytick_3">
     <g id="line2d_15">
      <path d="M 40.603125 227.065778 
L 390.683125 227.065778 
" clip-path="url(#p8c513cd14c)" style="fill: none; stroke: #b0b0b0; stroke-opacity: 0.25; stroke-width: 0.8; stroke-linecap: square"/>
     </g>
     <g id="line2d_16">
      <g>
       <use xlink:href="#mfdf5e022bd" x="40.603125" y="227.065778" style="stroke: #000000; stroke-width: 0.8"/>
      </g>
     </g>
     <g id="text_9">
      <!-- 10 -->
      <g transform="translate(20.878125 230.864997) scale(0.1 -0.1)">
       <use xlink:href="#DejaVuSans-31"/>
       <use xlink:href="#DejaVuSans-30" transform="translate(63.623047 0)"/>
      </g>
     </g>
    </g>
    <g id="ytick_4">
     <g id="line2d_17">
      <path d="M 40.603125 203.754667 
L 390.683125 203.754667 
" clip-path="url(#p8c513cd14c)" style="fill: none; stroke: #b0b0b0; stroke-opacity: 0.25; stroke-width: 0.8; stroke-linecap: square"/>
     </g>
     <g id="line2d_18">
      <g>
       <use xlink:href="#mfdf5e022bd" x="40.603125" y="203.754667" style="stroke: #000000; stroke-width: 0.8"/>
      </g>
     </g>
     <g id="text_10">
      <!-- 15 -->
      <g transform="translate(20.878125 207.553885) scale(0.1 -0.1)">
       <use xlink:href="#DejaVuSans-31"/>
       <use xlink:href="#DejaVuSans-35" transform="translate(63.623047 0)"/>
      </g>
     </g>
    </g>
    <g id="ytick_5">
     <g id="line2d_19">
      <path d="M 40.603125 180.443556 
L 390.683125 180.443556 
" clip-path="url(#p8c513cd14c)" style="fill: none; stroke: #b0b0b0; stroke-opacity: 0.25; stroke-width: 0.8; stroke-linecap: square"/>
     </g>
     <g id="line2d_20">
      <g>
       <use xlink:href="#mfdf5e022bd" x="40.603125" y="180.443556" style="stroke: #000000; stroke-width: 0.8"/>
      </g>
     </g>
     <g id="text_11">
      <!-- 20 -->
      <g transform="translate(20.878125 184.242774) scale(0.1 -0.1)">
       <use xlink:href="#DejaVuSans-32"/>
       <use xlink:href="#DejaVuSans-30" transform="translate(63.623047 0)"/>
      </g>
     </g>
    </g>
    <g id="ytick_6">
     <g id="line2d_21">
      <path d="M 40.603125 157.132444 
L 390.683125 157.132444 
" clip-path="url(#p8c513cd14c)" style="fill: none; stroke: #b0b0b0; stroke-opacity: 0.25; stroke-width: 0.8; stroke-linecap: square"/>
     </g>
     <g id="line2d_22">
      <g>
       <use xlink:href="#mfdf5e022bd" x="40.603125" y="157.132444" style="stroke: #000000; stroke-width: 0.8"/>
      </g>
     </g>
     <g id="text_12">
      <!-- 25 -->
      <g transform="translate(20.878125 160.931663) scale(0.1 -0.1)">
       <use xlink:href="#DejaVuSans-32"/>
       <use xlink:href="#DejaVuSans-35" transform="translate(63.623047 0)"/>
      </g>
     </g>
    </g>
    <g id="ytick_7">
     <g id="line2d_23">
      <path d="M 40.603125 133.821333 
L 390.683125 133.821333 
" clip-path="url(#p8c513cd14c)" style="fill: none; stroke: #b0b0b0; stroke-opacity: 0.25; stroke-width: 0.8; stroke-linecap: square"/>
     </g>
     <g id="line2d_24">
      <g>
       <use xlink:href="#mfdf5e022bd" x="40.603125" y="133.821333" style="stroke: #000000; stroke-width: 0.8"/>
      </g>
     </g>
     <g id="text_13">
      <!-- 30 -->
      <g transform="translate(20.878125 137.620552) scale(0.1 -0.1)">
       <use xlink:href="#DejaVuSans-33"/>
       <use xlink:href="#DejaVuSans-30" transform="translate(63.623047 0)"/>
      </g>
     </g>
    </g>
    <g id="ytick_8">
     <g id="line2d_25">
      <path d="M 40.603125 110.510222 
L 390.683125 110.510222 
" clip-path="url(#p8c513cd14c)" style="fill: none; stroke: #b0b0b0; stroke-opacity: 0.25; stroke-width: 0.8; stroke-linecap: square"/>
     </g>
     <g id="line2d_26">
      <g>
       <use xlink:href="#mfdf5e022bd" x="40.603125" y="110.510222" style="stroke: #000000; stroke-width: 0.8"/>
      </g>
     </g>
     <g id="text_14">
      <!-- 35 -->
      <g transform="translate(20.878125 114.309441) scale(0.1 -0.1)">
       <use xlink:href="#DejaVuSans-33"/>
       <use xlink:href="#DejaVuSans-35" transform="translate(63.623047 0)"/>
      </g>
     </g>
    </g>
    <g id="ytick_9">
     <g id="line2d_27">
      <path d="M 40.603125 87.199111 
L 390.683125 87.199111 
" clip-path="url(#p8c513cd14c)" style="fill: none; stroke: #b0b0b0; stroke-opacity: 0.25; stroke-width: 0.8; stroke-linecap: square"/>
     </g>
     <g id="line2d_28">
      <g>
       <use xlink:href="#mfdf5e022bd" x="40.603125" y="87.199111" style="stroke: #000000; stroke-width: 0.8"/>
      </g>
     </g>
     <g id="text_15">
      <!-- 40 -->
      <g transform="translate(20.878125 90.99833) scale(0.1 -0.1)">
       <use xlink:href="#DejaVuSans-34"/>
       <use xlink:href="#DejaVuSans-30" transform="translate(63.623047 0)"/>
      </g>
     </g>
    </g>
    <g id="ytick_10">
     <g id="line2d_29">
      <path d="M 40.603125 63.888 
L 390.683125 63.888 
" clip-path="url(#p8c513cd14c)" style="fill: none; stroke: #b0b0b0; stroke-opacity: 0.25; stroke-width: 0.8; stroke-linecap: square"/>
     </g>
     <g id="line2d_30">
      <g>
       <use xlink:href="#mfdf5e022bd" x="40.603125" y="63.888" style="stroke: #000000; stroke-width: 0.8"/>
      </g>
     </g>
     <g id="text_16">
      <!-- 45 -->
      <g transform="translate(20.878125 67.687219) scale(0.1 -0.1)">
       <use xlink:href="#DejaVuSans-34"/>
       <use xlink:href="#DejaVuSans-35" transform="translate(63.623047 0)"/>
      </g>
     </g>
    </g>
    <g id="text_17">
     <!-- coverage (%) -->
     <g transform="translate(14.798438 202.24425) rotate(-90) scale(0.1 -0.1)">
      <defs>
       <path id="DejaVuSans-63" d="M 3122 3366 
L 3122 2828 
Q 2878 2963 2633 3030 
Q 2388 3097 2138 3097 
Q 1578 3097 1268 2742 
Q 959 2388 959 1747 
Q 959 1106 1268 751 
Q 1578 397 2138 397 
Q 2388 397 2633 464 
Q 2878 531 3122 666 
L 3122 134 
Q 2881 22 2623 -34 
Q 2366 -91 2075 -91 
Q 1284 -91 818 406 
Q 353 903 353 1747 
Q 353 2603 823 3093 
Q 1294 3584 2113 3584 
Q 2378 3584 2631 3529 
Q 2884 3475 3122 3366 
z
" transform="scale(0.015625)"/>
       <path id="DejaVuSans-76" d="M 191 3500 
L 800 3500 
L 1894 563 
L 2988 3500 
L 3597 3500 
L 2284 0 
L 1503 0 
L 191 3500 
z
" transform="scale(0.015625)"/>
       <path id="DejaVuSans-65" d="M 3597 1894 
L 3597 1613 
L 953 1613 
Q 991 1019 1311 708 
Q 1631 397 2203 397 
Q 2534 397 2845 478 
Q 3156 559 3463 722 
L 3463 178 
Q 3153 47 2828 -22 
Q 2503 -91 2169 -91 
Q 1331 -91 842 396 
Q 353 884 353 1716 
Q 353 2575 817 3079 
Q 1281 3584 2069 3584 
Q 2775 3584 3186 3129 
Q 3597 2675 3597 1894 
z
M 3022 2063 
Q 3016 2534 2758 2815 
Q 2500 3097 2075 3097 
Q 1594 3097 1305 2825 
Q 1016 2553 972 2059 
L 3022 2063 
z
" transform="scale(0.015625)"/>
       <path id="DejaVuSans-72" d="M 2631 2963 
Q 2534 3019 2420 3045 
Q 2306 3072 2169 3072 
Q 1681 3072 1420 2755 
Q 1159 2438 1159 1844 
L 1159 0 
L 581 0 
L 581 3500 
L 1159 3500 
L 1159 2956 
Q 1341 3275 1631 3429 
Q 1922 3584 2338 3584 
Q 2397 3584 2469 3576 
Q 2541 3569 2628 3553 
L 2631 2963 
z
" transform="scale(0.015625)"/>
       <path id="DejaVuSans-61" d="M 2194 1759 
Q 1497 1759 1228 1600 
Q 959 1441 959 1056 
Q 959 750 1161 570 
Q 1363 391 1709 391 
Q 2188 391 2477 730 
Q 2766 1069 2766 1631 
L 2766 1759 
L 2194 1759 
z
M 3341 1997 
L 3341 0 
L 2766 0 
L 2766 531 
Q 2569 213 2275 61 
Q 1981 -91 1556 -91 
Q 1019 -91 701 211 
Q 384 513 384 1019 
Q 384 1609 779 1909 
Q 1175 2209 1959 2209 
L 2766 2209 
L 2766 2266 
Q 2766 2663 2505 2880 
Q 2244 3097 1772 3097 
Q 1472 3097 1187 3025 
Q 903 2953 641 2809 
L 641 3341 
Q 956 3463 1253 3523 
Q 1550 3584 1831 3584 
Q 2591 3584 2966 3190 
Q 3341 2797 3341 1997 
z
" transform="scale(0.015625)"/>
       <path id="DejaVuSans-67" d="M 2906 1791 
Q 2906 2416 2648 2759 
Q 2391 3103 1925 3103 
Q 1463 3103 1205 2759 
Q 947 2416 947 1791 
Q 947 1169 1205 825 
Q 1463 481 1925 481 
Q 2391 481 2648 825 
Q 2906 1169 2906 1791 
z
M 3481 434 
Q 3481 -459 3084 -895 
Q 2688 -1331 1869 -1331 
Q 1566 -1331 1297 -1286 
Q 1028 -1241 775 -1147 
L 775 -588 
Q 1028 -725 1275 -790 
Q 1522 -856 1778 -856 
Q 2344 -856 2625 -561 
Q 2906 -266 2906 331 
L 2906 616 
Q 2728 306 2450 153 
Q 2172 0 1784 0 
Q 1141 0 747 490 
Q 353 981 353 1791 
Q 353 2603 747 3093 
Q 1141 3584 1784 3584 
Q 2172 3584 2450 3431 
Q 2728 3278 2906 2969 
L 2906 3500 
L 3481 3500 
L 3481 434 
z
" transform="scale(0.015625)"/>
       <path id="DejaVuSans-20" transform="scale(0.015625)"/>
       <path id="DejaVuSans-28" d="M 1984 4856 
Q 1566 4138 1362 3434 
Q 1159 2731 1159 2009 
Q 1159 1288 1364 580 
Q 1569 -128 1984 -844 
L 1484 -844 
Q 1016 -109 783 600 
Q 550 1309 550 2009 
Q 550 2706 781 3412 
Q 1013 4119 1484 4856 
L 1984 4856 
z
" transform="scale(0.015625)"/>
       <path id="DejaVuSans-25" d="M 4653 2053 
Q 4381 2053 4226 1822 
Q 4072 1591 4072 1178 
Q 4072 772 4226 539 
Q 4381 306 4653 306 
Q 4919 306 5073 539 
Q 5228 772 5228 1178 
Q 5228 1588 5073 1820 
Q 4919 2053 4653 2053 
z
M 4653 2450 
Q 5147 2450 5437 2106 
Q 5728 1763 5728 1178 
Q 5728 594 5436 251 
Q 5144 -91 4653 -91 
Q 4153 -91 3862 251 
Q 3572 594 3572 1178 
Q 3572 1766 3864 2108 
Q 4156 2450 4653 2450 
z
M 1428 4353 
Q 1159 4353 1004 4120 
Q 850 3888 850 3481 
Q 850 3069 1003 2837 
Q 1156 2606 1428 2606 
Q 1700 2606 1854 2837 
Q 2009 3069 2009 3481 
Q 2009 3884 1853 4118 
Q 1697 4353 1428 4353 
z
M 4250 4750 
L 4750 4750 
L 1831 -91 
L 1331 -91 
L 4250 4750 
z
M 1428 4750 
Q 1922 4750 2215 4408 
Q 2509 4066 2509 3481 
Q 2509 2891 2217 2550 
Q 1925 2209 1428 2209 
Q 931 2209 642 2551 
Q 353 2894 353 3481 
Q 353 4063 643 4406 
Q 934 4750 1428 4750 
z
" transform="scale(0.015625)"/>
       <path id="DejaVuSans-29" d="M 513 4856 
L 1013 4856 
Q 1481 4119 1714 3412 
Q 1947 2706 1947 2009 
Q 1947 1309 1714 600 
Q 1481 -109 1013 -844 
L 513 -844 
Q 928 -128 1133 580 
Q 1338 1288 1338 2009 
Q 1338 2731 1133 3434 
Q 928 4138 513 4856 
z
" transform="scale(0.015625)"/>
      </defs>
      <use xlink:href="#DejaVuSans-63"/>
      <use xlink:href="#DejaVuSans-6f" transform="translate(54.980469 0)"/>
      <use xlink:href="#DejaVuSans-76" transform="translate(116.162109 0)"/>
      <use xlink:href="#DejaVuSans-65" transform="translate(175.341797 0)"/>
      <use xlink:href="#DejaVuSans-72" transform="translate(236.865234 0)"/>
      <use xlink:href="#DejaVuSans-61" transform="translate(277.978516 0)"/>
      <use xlink:href="#DejaVuSans-67" transform="translate(339.257812 0)"/>
      <use xlink:href="#DejaVuSans-65" transform="translate(402.734375 0)"/>
      <use xlink:href="#DejaVuSans-20" transform="translate(464.257812 0)"/>
      <use xlink:href="#DejaVuSans-28" transform="translate(496.044922 0)"/>
      <use xlink:href="#DejaVuSans-25" transform="translate(535.058594 0)"/>
      <use xlink:href="#DejaVuSans-29" transform="translate(630.078125 0)"/>
     </g>
    </g>
   </g>
   <g id="line2d_31">
    <path d="M 40.603125 103.966752 
L 390.683125 103.966752 
" clip-path="url(#p8c513cd14c)" style="fill: none; stroke-dasharray: 5.55,2.4; stroke-dashoffset: 0; stroke: #4c78a8; stroke-width: 1.5"/>
   </g>
   <g id="line2d_32">
    <path d="M 40.603125 156.426047 
L 390.683125 156.426047 
" clip-path="url(#p8c513cd14c)" style="fill: none; stroke-dasharray: 1.5,2.475; stroke-dashoffset: 0; stroke: #a0a0a0; stroke-width: 1.5"/>
   </g>
   <g id="patch_8">
    <path d="M 40.603125 273.688 
L 40.603125 63.888 
" style="fill: none; stroke: #000000; stroke-width: 0.8; stroke-linejoin: miter; stroke-linecap: square"/>
   </g>
   <g id="patch_9">
    <path d="M 40.603125 273.688 
L 390.683125 273.688 
" style="fill: none; stroke: #000000; stroke-width: 0.8; stroke-linejoin: miter; stroke-linecap: square"/>
   </g>
   <g id="text_18">
    <!-- Actigraphy coverage by fold -->
    <g transform="translate(131.012188 57.888) scale(0.12 -0.12)">
     <defs>
      <path id="DejaVuSans-41" d="M 2188 4044 
L 1331 1722 
L 3047 1722 
L 2188 4044 
z
M 1831 4666 
L 2547 4666 
L 4325 0 
L 3669 0 
L 3244 1197 
L 1141 1197 
L 716 0 
L 50 0 
L 1831 4666 
z
" transform="scale(0.015625)"/>
      <path id="DejaVuSans-74" d="M 1172 4494 
L 1172 3500 
L 2356 3500 
L 2356 3053 
L 1172 3053 
L 1172 1153 
Q 1172 725 1289 603 
Q 1406 481 1766 481 
L 2356 481 
L 2356 0 
L 1766 0 
Q 1100 0 847 248 
Q 594 497 594 1153 
L 594 3053 
L 172 3053 
L 172 3500 
L 594 3500 
L 594 4494 
L 1172 4494 
z
" transform="scale(0.015625)"/>
      <path id="DejaVuSans-69" d="M 603 3500 
L 1178 3500 
L 1178 0 
L 603 0 
L 603 3500 
z
M 603 4863 
L 1178 4863 
L 1178 4134 
L 603 4134 
L 603 4863 
z
" transform="scale(0.015625)"/>
      <path id="DejaVuSans-70" d="M 1159 525 
L 1159 -1331 
L 581 -1331 
L 581 3500 
L 1159 3500 
L 1159 2969 
Q 1341 3281 1617 3432 
Q 1894 3584 2278 3584 
Q 2916 3584 3314 3078 
Q 3713 2572 3713 1747 
Q 3713 922 3314 415 
Q 2916 -91 2278 -91 
Q 1894 -91 1617 61 
Q 1341 213 1159 525 
z
M 3116 1747 
Q 3116 2381 2855 2742 
Q 2594 3103 2138 3103 
Q 1681 3103 1420 2742 
Q 1159 2381 1159 1747 
Q 1159 1113 1420 752 
Q 1681 391 2138 391 
Q 2594 391 2855 752 
Q 3116 1113 3116 1747 
z
" transform="scale(0.015625)"/>
      <path id="DejaVuSans-68" d="M 3513 2113 
L 3513 0 
L 2938 0 
L 2938 2094 
Q 2938 2591 2744 2837 
Q 2550 3084 2163 3084 
Q 1697 3084 1428 2787 
Q 1159 2491 1159 1978 
L 1159 0 
L 581 0 
L 581 4863 
L 1159 4863 
L 1159 2956 
Q 1366 3272 1645 3428 
Q 1925 3584 2291 3584 
Q 2894 3584 3203 3211 
Q 3513 2838 3513 2113 
z
" transform="scale(0.015625)"/>
      <path id="DejaVuSans-79" d="M 2059 -325 
Q 1816 -950 1584 -1140 
Q 1353 -1331 966 -1331 
L 506 -1331 
L 506 -850 
L 844 -850 
Q 1081 -850 1212 -737 
Q 1344 -625 1503 -206 
L 1606 56 
L 191 3500 
L 800 3500 
L 1894 763 
L 2988 3500 
L 3597 3500 
L 2059 -325 
z
" transform="scale(0.015625)"/>
      <path id="DejaVuSans-62" d="M 3116 1747 
Q 3116 2381 2855 2742 
Q 2594 3103 2138 3103 
Q 1681 3103 1420 2742 
Q 1159 2381 1159 1747 
Q 1159 1113 1420 752 
Q 1681 391 2138 391 
Q 2594 391 2855 752 
Q 3116 1113 3116 1747 
z
M 1159 2969 
Q 1341 3281 1617 3432 
Q 1894 3584 2278 3584 
Q 2916 3584 3314 3078 
Q 3713 2572 3713 1747 
Q 3713 922 3314 415 
Q 2916 -91 2278 -91 
Q 1894 -91 1617 61 
Q 1341 213 1159 525 
L 1159 0 
L 581 0 
L 581 4863 
L 1159 4863 
L 1159 2969 
z
" transform="scale(0.015625)"/>
     </defs>
     <use xlink:href="#DejaVuSans-41"/>
     <use xlink:href="#DejaVuSans-63" transform="translate(66.658203 0)"/>
     <use xlink:href="#DejaVuSans-74" transform="translate(121.638672 0)"/>
     <use xlink:href="#DejaVuSans-69" transform="translate(160.847656 0)"/>
     <use xlink:href="#DejaVuSans-67" transform="translate(188.630859 0)"/>
     <use xlink:href="#DejaVuSans-72" transform="translate(252.107422 0)"/>
     <use xlink:href="#DejaVuSans-61" transform="translate(293.220703 0)"/>
     <use xlink:href="#DejaVuSans-70" transform="translate(354.5 0)"/>
     <use xlink:href="#DejaVuSans-68" transform="translate(417.976562 0)"/>
     <use xlink:href="#DejaVuSans-79" transform="translate(481.355469 0)"/>
     <use xlink:href="#DejaVuSans-20" transform="translate(540.535156 0)"/>
     <use xlink:href="#DejaVuSans-63" transform="translate(572.322266 0)"/>
     <use xlink:href="#DejaVuSans-6f" transform="translate(627.302734 0)"/>
     <use xlink:href="#DejaVuSans-76" transform="translate(688.484375 0)"/>
     <use xlink:href="#DejaVuSans-65" transform="translate(747.664062 0)"/>
     <use xlink:href="#DejaVuSans-72" transform="translate(809.1875 0)"/>
     <use xlink:href="#DejaVuSans-61" transform="translate(850.300781 0)"/>
     <use xlink:href="#DejaVuSans-67" transform="translate(911.580078 0)"/>
     <use xlink:href="#DejaVuSans-65" transform="translate(975.056641 0)"/>
     <use xlink:href="#DejaVuSans-20" transform="translate(1036.580078 0)"/>
     <use xlink:href="#DejaVuSans-62" transform="translate(1068.367188 0)"/>
     <use xlink:href="#DejaVuSans-79" transform="translate(1131.84375 0)"/>
     <use xlink:href="#DejaVuSans-20" transform="translate(1191.023438 0)"/>
     <use xlink:href="#DejaVuSans-66" transform="translate(1222.810547 0)"/>
     <use xlink:href="#DejaVuSans-6f" transform="translate(1258.015625 0)"/>
     <use xlink:href="#DejaVuSans-6c" transform="translate(1319.197266 0)"/>
     <use xlink:href="#DejaVuSans-64" transform="translate(1346.980469 0)"/>
    </g>
   </g>
   <g id="legend_1">
    <g id="line2d_33">
     <path d="M 260.476875 76.986438 
L 270.476875 76.986438 
L 280.476875 76.986438 
" style="fill: none; stroke-dasharray: 5.55,2.4; stroke-dashoffset: 0; stroke: #4c78a8; stroke-width: 1.5"/>
    </g>
    <g id="text_19">
     <!-- labeled avg 36.4% -->
     <g transform="translate(288.476875 80.486438) scale(0.1 -0.1)">
      <defs>
       <path id="DejaVuSans-36" d="M 2113 2584 
Q 1688 2584 1439 2293 
Q 1191 2003 1191 1497 
Q 1191 994 1439 701 
Q 1688 409 2113 409 
Q 2538 409 2786 701 
Q 3034 994 3034 1497 
Q 3034 2003 2786 2293 
Q 2538 2584 2113 2584 
z
M 3366 4563 
L 3366 3988 
Q 3128 4100 2886 4159 
Q 2644 4219 2406 4219 
Q 1781 4219 1451 3797 
Q 1122 3375 1075 2522 
Q 1259 2794 1537 2939 
Q 1816 3084 2150 3084 
Q 2853 3084 3261 2657 
Q 3669 2231 3669 1497 
Q 3669 778 3244 343 
Q 2819 -91 2113 -91 
Q 1303 -91 875 529 
Q 447 1150 447 2328 
Q 447 3434 972 4092 
Q 1497 4750 2381 4750 
Q 2619 4750 2861 4703 
Q 3103 4656 3366 4563 
z
" transform="scale(0.015625)"/>
       <path id="DejaVuSans-2e" d="M 684 794 
L 1344 794 
L 1344 0 
L 684 0 
L 684 794 
z
" transform="scale(0.015625)"/>
      </defs>
      <use xlink:href="#DejaVuSans-6c"/>
      <use xlink:href="#DejaVuSans-61" transform="translate(27.783203 0)"/>
      <use xlink:href="#DejaVuSans-62" transform="translate(89.0625 0)"/>
      <use xlink:href="#DejaVuSans-65" transform="translate(152.539062 0)"/>
      <use xlink:href="#DejaVuSans-6c" transform="translate(214.0625 0)"/>
      <use xlink:href="#DejaVuSans-65" transform="translate(241.845703 0)"/>
      <use xlink:href="#DejaVuSans-64" transform="translate(303.369141 0)"/>
      <use xlink:href="#DejaVuSans-20" transform="translate(366.845703 0)"/>
      <use xlink:href="#DejaVuSans-61" transform="translate(398.632812 0)"/>
      <use xlink:href="#DejaVuSans-76" transform="translate(459.912109 0)"/>
      <use xlink:href="#DejaVuSans-67" transform="translate(519.091797 0)"/>
      <use xlink:href="#DejaVuSans-20" transform="translate(582.568359 0)"/>
      <use xlink:href="#DejaVuSans-33" transform="translate(614.355469 0)"/>
      <use xlink:href="#DejaVuSans-36" transform="translate(677.978516 0)"/>
      <use xlink:href="#DejaVuSans-2e" transform="translate(741.601562 0)"/>
      <use xlink:href="#DejaVuSans-34" transform="translate(773.388672 0)"/>
      <use xlink:href="#DejaVuSans-25" transform="translate(837.011719 0)"/>
     </g>
    </g>
    <g id="line2d_34">
     <path d="M 260.476875 91.664563 
L 270.476875 91.664563 
L 280.476875 91.664563 
" style="fill: none; stroke-dasharray: 1.5,2.475; stroke-dashoffset: 0; stroke: #a0a0a0; stroke-width: 1.5"/>
    </g>
    <g id="text_20">
     <!-- all rows 25.2% -->
     <g transform="translate(288.476875 95.164563) scale(0.1 -0.1)">
      <defs>
       <path id="DejaVuSans-77" d="M 269 3500 
L 844 3500 
L 1563 769 
L 2278 3500 
L 2956 3500 
L 3675 769 
L 4391 3500 
L 4966 3500 
L 4050 0 
L 3372 0 
L 2619 2869 
L 1863 0 
L 1184 0 
L 269 3500 
z
" transform="scale(0.015625)"/>
       <path id="DejaVuSans-73" d="M 2834 3397 
L 2834 2853 
Q 2591 2978 2328 3040 
Q 2066 3103 1784 3103 
Q 1356 3103 1142 2972 
Q 928 2841 928 2578 
Q 928 2378 1081 2264 
Q 1234 2150 1697 2047 
L 1894 2003 
Q 2506 1872 2764 1633 
Q 3022 1394 3022 966 
Q 3022 478 2636 193 
Q 2250 -91 1575 -91 
Q 1294 -91 989 -36 
Q 684 19 347 128 
L 347 722 
Q 666 556 975 473 
Q 1284 391 1588 391 
Q 1994 391 2212 530 
Q 2431 669 2431 922 
Q 2431 1156 2273 1281 
Q 2116 1406 1581 1522 
L 1381 1569 
Q 847 1681 609 1914 
Q 372 2147 372 2553 
Q 372 3047 722 3315 
Q 1072 3584 1716 3584 
Q 2034 3584 2315 3537 
Q 2597 3491 2834 3397 
z
" transform="scale(0.015625)"/>
      </defs>
      <use xlink:href="#DejaVuSans-61"/>
      <use xlink:href="#DejaVuSans-6c" transform="translate(61.279297 0)"/>
      <use xlink:href="#DejaVuSans-6c" transform="translate(89.0625 0)"/>
      <use xlink:href="#DejaVuSans-20" transform="translate(116.845703 0)"/>
      <use xlink:href="#DejaVuSans-72" transform="translate(148.632812 0)"/>
      <use xlink:href="#DejaVuSans-6f" transform="translate(187.496094 0)"/>
      <use xlink:href="#DejaVuSans-77" transform="translate(248.677734 0)"/>
      <use xlink:href="#DejaVuSans-73" transform="translate(330.464844 0)"/>
      <use xlink:href="#DejaVuSans-20" transform="translate(382.564453 0)"/>
      <use xlink:href="#DejaVuSans-32" transform="translate(414.351562 0)"/>
      <use xlink:href="#DejaVuSans-35" transform="translate(477.974609 0)"/>
      <use xlink:href="#DejaVuSans-2e" transform="translate(541.597656 0)"/>
      <use xlink:href="#DejaVuSans-32" transform="translate(573.384766 0)"/>
      <use xlink:href="#DejaVuSans-25" transform="translate(637.007812 0)"/>
     </g>
    </g>
   </g>
  </g>
  <g id="axes_2">
   <g id="patch_10">
    <path d="M 441.553125 273.688 
L 791.633125 273.688 
L 791.633125 63.888 
L 441.553125 63.888 
z
" style="fill: #ffffff"/>
   </g>
   <g id="patch_11">
    <path d="M 457.465852 273.688 
L 510.508277 273.688 
L 510.508277 165.883792 
L 457.465852 165.883792 
z
" clip-path="url(#p19bcf19838)" style="fill: #4c78a8; opacity: 0.9"/>
   </g>
   <g id="patch_12">
    <path d="M 523.768883 273.688 
L 576.811307 273.688 
L 576.811307 151.014246 
L 523.768883 151.014246 
z
" clip-path="url(#p19bcf19838)" style="fill: #4c78a8; opacity: 0.9"/>
   </g>
   <g id="patch_13">
    <path d="M 590.071913 273.688 
L 643.114337 273.688 
L 643.114337 157.519672 
L 590.071913 157.519672 
z
" clip-path="url(#p19bcf19838)" style="fill: #4c78a8; opacity: 0.9"/>
   </g>
   <g id="patch_14">
    <path d="M 656.374943 273.688 
L 709.417367 273.688 
L 709.417367 176.106605 
L 656.374943 176.106605 
z
" clip-path="url(#p19bcf19838)" style="fill: #4c78a8; opacity: 0.9"/>
   </g>
   <g id="patch_15">
    <path d="M 722.677973 273.688 
L 775.720398 273.688 
L 775.720398 176.106605 
L 722.677973 176.106605 
z
" clip-path="url(#p19bcf19838)" style="fill: #4c78a8; opacity: 0.9"/>
   </g>
   <g id="patch_16">
    <path d="M 457.465852 165.883792 
L 510.508277 165.883792 
L 510.508277 115.699074 
L 457.465852 115.699074 
z
" clip-path="url(#p19bcf19838)" style="fill: #f58518; opacity: 0.9"/>
   </g>
   <g id="patch_17">
    <path d="M 523.768883 151.014246 
L 576.811307 151.014246 
L 576.811307 102.688221 
L 523.768883 102.688221 
z
" clip-path="url(#p19bcf19838)" style="fill: #f58518; opacity: 0.9"/>
   </g>
   <g id="patch_18">
    <path d="M 590.071913 157.519672 
L 643.114337 157.519672 
L 643.114337 111.981688 
L 590.071913 111.981688 
z
" clip-path="url(#p19bcf19838)" style="fill: #f58518; opacity: 0.9"/>
   </g>
   <g id="patch_19">
    <path d="M 656.374943 176.106605 
L 709.417367 176.106605 
L 709.417367 124.99254 
L 656.374943 124.99254 
z
" clip-path="url(#p19bcf19838)" style="fill: #f58518; opacity: 0.9"/>
   </g>
   <g id="patch_20">
    <path d="M 722.677973 176.106605 
L 775.720398 176.106605 
L 775.720398 124.063194 
L 722.677973 124.063194 
z
" clip-path="url(#p19bcf19838)" style="fill: #f58518; opacity: 0.9"/>
   </g>
   <g id="patch_21">
    <path d="M 457.465852 115.699074 
L 510.508277 115.699074 
L 510.508277 90.606715 
L 457.465852 90.606715 
z
" clip-path="url(#p19bcf19838)" style="fill: #54a24b; opacity: 0.9"/>
   </g>
   <g id="patch_22">
    <path d="M 523.768883 102.688221 
L 576.811307 102.688221 
L 576.811307 77.595863 
L 523.768883 77.595863 
z
" clip-path="url(#p19bcf19838)" style="fill: #54a24b; opacity: 0.9"/>
   </g>
   <g id="patch_23">
    <path d="M 590.071913 111.981688 
L 643.114337 111.981688 
L 643.114337 88.748022 
L 590.071913 88.748022 
z
" clip-path="url(#p19bcf19838)" style="fill: #54a24b; opacity: 0.9"/>
   </g>
   <g id="patch_24">
    <path d="M 656.374943 124.99254 
L 709.417367 124.99254 
L 709.417367 97.112142 
L 656.374943 97.112142 
z
" clip-path="url(#p19bcf19838)" style="fill: #54a24b; opacity: 0.9"/>
   </g>
   <g id="patch_25">
    <path d="M 722.677973 124.063194 
L 775.720398 124.063194 
L 775.720398 98.041488 
L 722.677973 98.041488 
z
" clip-path="url(#p19bcf19838)" style="fill: #54a24b; opacity: 0.9"/>
   </g>
   <g id="patch_26">
    <path d="M 457.465852 90.606715 
L 510.508277 90.606715 
L 510.508277 87.818676 
L 457.465852 87.818676 
z
" clip-path="url(#p19bcf19838)" style="fill: #e45756; opacity: 0.9"/>
   </g>
   <g id="patch_27">
    <path d="M 523.768883 77.595863 
L 576.811307 77.595863 
L 576.811307 73.878476 
L 523.768883 73.878476 
z
" clip-path="url(#p19bcf19838)" style="fill: #e45756; opacity: 0.9"/>
   </g>
   <g id="patch_28">
    <path d="M 590.071913 88.748022 
L 643.114337 88.748022 
L 643.114337 87.818676 
L 590.071913 87.818676 
z
" clip-path="url(#p19bcf19838)" style="fill: #e45756; opacity: 0.9"/>
   </g>
   <g id="patch_29">
    <path d="M 656.374943 97.112142 
L 709.417367 97.112142 
L 709.417367 95.253449 
L 656.374943 95.253449 
z
" clip-path="url(#p19bcf19838)" style="fill: #e45756; opacity: 0.9"/>
   </g>
   <g id="patch_30">
    <path d="M 722.677973 98.041488 
L 775.720398 98.041488 
L 775.720398 98.041488 
L 722.677973 98.041488 
z
" clip-path="url(#p19bcf19838)" style="fill: #e45756; opacity: 0.9"/>
   </g>
   <g id="matplotlib.axis_3">
    <g id="xtick_6">
     <g id="line2d_35">
      <path d="M 483.987064 273.688 
L 483.987064 63.888 
" clip-path="url(#p19bcf19838)" style="fill: none; stroke: #b0b0b0; stroke-opacity: 0.25; stroke-width: 0.8; stroke-linecap: square"/>
     </g>
     <g id="line2d_36">
      <g>
       <use xlink:href="#maa855cd703" x="483.987064" y="273.688" style="stroke: #000000; stroke-width: 0.8"/>
      </g>
     </g>
     <g id="text_21">
      <!-- 0 -->
      <g transform="translate(480.805814 288.286438) scale(0.1 -0.1)">
       <use xlink:href="#DejaVuSans-30"/>
      </g>
     </g>
    </g>
    <g id="xtick_7">
     <g id="line2d_37">
      <path d="M 550.290095 273.688 
L 550.290095 63.888 
" clip-path="url(#p19bcf19838)" style="fill: none; stroke: #b0b0b0; stroke-opacity: 0.25; stroke-width: 0.8; stroke-linecap: square"/>
     </g>
     <g id="line2d_38">
      <g>
       <use xlink:href="#maa855cd703" x="550.290095" y="273.688" style="stroke: #000000; stroke-width: 0.8"/>
      </g>
     </g>
     <g id="text_22">
      <!-- 1 -->
      <g transform="translate(547.108845 288.286438) scale(0.1 -0.1)">
       <use xlink:href="#DejaVuSans-31"/>
      </g>
     </g>
    </g>
    <g id="xtick_8">
     <g id="line2d_39">
      <path d="M 616.593125 273.688 
L 616.593125 63.888 
" clip-path="url(#p19bcf19838)" style="fill: none; stroke: #b0b0b0; stroke-opacity: 0.25; stroke-width: 0.8; stroke-linecap: square"/>
     </g>
     <g id="line2d_40">
      <g>
       <use xlink:href="#maa855cd703" x="616.593125" y="273.688" style="stroke: #000000; stroke-width: 0.8"/>
      </g>
     </g>
     <g id="text_23">
      <!-- 2 -->
      <g transform="translate(613.411875 288.286438) scale(0.1 -0.1)">
       <use xlink:href="#DejaVuSans-32"/>
      </g>
     </g>
    </g>
    <g id="xtick_9">
     <g id="line2d_41">
      <path d="M 682.896155 273.688 
L 682.896155 63.888 
" clip-path="url(#p19bcf19838)" style="fill: none; stroke: #b0b0b0; stroke-opacity: 0.25; stroke-width: 0.8; stroke-linecap: square"/>
     </g>
     <g id="line2d_42">
      <g>
       <use xlink:href="#maa855cd703" x="682.896155" y="273.688" style="stroke: #000000; stroke-width: 0.8"/>
      </g>
     </g>
     <g id="text_24">
      <!-- 3 -->
      <g transform="translate(679.714905 288.286438) scale(0.1 -0.1)">
       <use xlink:href="#DejaVuSans-33"/>
      </g>
     </g>
    </g>
    <g id="xtick_10">
     <g id="line2d_43">
      <path d="M 749.199186 273.688 
L 749.199186 63.888 
" clip-path="url(#p19bcf19838)" style="fill: none; stroke: #b0b0b0; stroke-opacity: 0.25; stroke-width: 0.8; stroke-linecap: square"/>
     </g>
     <g id="line2d_44">
      <g>
       <use xlink:href="#maa855cd703" x="749.199186" y="273.688" style="stroke: #000000; stroke-width: 0.8"/>
      </g>
     </g>
     <g id="text_25">
      <!-- 4 -->
      <g transform="translate(746.017936 288.286438) scale(0.1 -0.1)">
       <use xlink:href="#DejaVuSans-34"/>
      </g>
     </g>
    </g>
    <g id="text_26">
     <!-- fold -->
     <g transform="translate(607.210312 301.964562) scale(0.1 -0.1)">
      <use xlink:href="#DejaVuSans-66"/>
      <use xlink:href="#DejaVuSans-6f" transform="translate(35.205078 0)"/>
      <use xlink:href="#DejaVuSans-6c" transform="translate(96.386719 0)"/>
      <use xlink:href="#DejaVuSans-64" transform="translate(124.169922 0)"/>
     </g>
    </g>
   </g>
   <g id="matplotlib.axis_4">
    <g id="ytick_11">
     <g id="line2d_45">
      <path d="M 441.553125 273.688 
L 791.633125 273.688 
" clip-path="url(#p19bcf19838)" style="fill: none; stroke: #b0b0b0; stroke-opacity: 0.25; stroke-width: 0.8; stroke-linecap: square"/>
     </g>
     <g id="line2d_46">
      <g>
       <use xlink:href="#mfdf5e022bd" x="441.553125" y="273.688" style="stroke: #000000; stroke-width: 0.8"/>
      </g>
     </g>
     <g id="text_27">
      <!-- 0 -->
      <g transform="translate(428.190625 277.487219) scale(0.1 -0.1)">
       <use xlink:href="#DejaVuSans-30"/>
      </g>
     </g>
    </g>
    <g id="ytick_12">
     <g id="line2d_47">
      <path d="M 441.553125 227.220669 
L 791.633125 227.220669 
" clip-path="url(#p19bcf19838)" style="fill: none; stroke: #b0b0b0; stroke-opacity: 0.25; stroke-width: 0.8; stroke-linecap: square"/>
     </g>
     <g id="line2d_48">
      <g>
       <use xlink:href="#mfdf5e022bd" x="441.553125" y="227.220669" style="stroke: #000000; stroke-width: 0.8"/>
      </g>
     </g>
     <g id="text_28">
      <!-- 50 -->
      <g transform="translate(421.828125 231.019888) scale(0.1 -0.1)">
       <use xlink:href="#DejaVuSans-35"/>
       <use xlink:href="#DejaVuSans-30" transform="translate(63.623047 0)"/>
      </g>
     </g>
    </g>
    <g id="ytick_13">
     <g id="line2d_49">
      <path d="M 441.553125 180.753338 
L 791.633125 180.753338 
" clip-path="url(#p19bcf19838)" style="fill: none; stroke: #b0b0b0; stroke-opacity: 0.25; stroke-width: 0.8; stroke-linecap: square"/>
     </g>
     <g id="line2d_50">
      <g>
       <use xlink:href="#mfdf5e022bd" x="441.553125" y="180.753338" style="stroke: #000000; stroke-width: 0.8"/>
      </g>
     </g>
     <g id="text_29">
      <!-- 100 -->
      <g transform="translate(415.465625 184.552557) scale(0.1 -0.1)">
       <use xlink:href="#DejaVuSans-31"/>
       <use xlink:href="#DejaVuSans-30" transform="translate(63.623047 0)"/>
       <use xlink:href="#DejaVuSans-30" transform="translate(127.246094 0)"/>
      </g>
     </g>
    </g>
    <g id="ytick_14">
     <g id="line2d_51">
      <path d="M 441.553125 134.286007 
L 791.633125 134.286007 
" clip-path="url(#p19bcf19838)" style="fill: none; stroke: #b0b0b0; stroke-opacity: 0.25; stroke-width: 0.8; stroke-linecap: square"/>
     </g>
     <g id="line2d_52">
      <g>
       <use xlink:href="#mfdf5e022bd" x="441.553125" y="134.286007" style="stroke: #000000; stroke-width: 0.8"/>
      </g>
     </g>
     <g id="text_30">
      <!-- 150 -->
      <g transform="translate(415.465625 138.085225) scale(0.1 -0.1)">
       <use xlink:href="#DejaVuSans-31"/>
       <use xlink:href="#DejaVuSans-35" transform="translate(63.623047 0)"/>
       <use xlink:href="#DejaVuSans-30" transform="translate(127.246094 0)"/>
      </g>
     </g>
    </g>
    <g id="ytick_15">
     <g id="line2d_53">
      <path d="M 441.553125 87.818676 
L 791.633125 87.818676 
" clip-path="url(#p19bcf19838)" style="fill: none; stroke: #b0b0b0; stroke-opacity: 0.25; stroke-width: 0.8; stroke-linecap: square"/>
     </g>
     <g id="line2d_54">
      <g>
       <use xlink:href="#mfdf5e022bd" x="441.553125" y="87.818676" style="stroke: #000000; stroke-width: 0.8"/>
      </g>
     </g>
     <g id="text_31">
      <!-- 200 -->
      <g transform="translate(415.465625 91.617894) scale(0.1 -0.1)">
       <use xlink:href="#DejaVuSans-32"/>
       <use xlink:href="#DejaVuSans-30" transform="translate(63.623047 0)"/>
       <use xlink:href="#DejaVuSans-30" transform="translate(127.246094 0)"/>
      </g>
     </g>
    </g>
    <g id="text_32">
     <!-- labeled rows -->
     <g transform="translate(409.385937 200.416906) rotate(-90) scale(0.1 -0.1)">
      <use xlink:href="#DejaVuSans-6c"/>
      <use xlink:href="#DejaVuSans-61" transform="translate(27.783203 0)"/>
      <use xlink:href="#DejaVuSans-62" transform="translate(89.0625 0)"/>
      <use xlink:href="#DejaVuSans-65" transform="translate(152.539062 0)"/>
      <use xlink:href="#DejaVuSans-6c" transform="translate(214.0625 0)"/>
      <use xlink:href="#DejaVuSans-65" transform="translate(241.845703 0)"/>
      <use xlink:href="#DejaVuSans-64" transform="translate(303.369141 0)"/>
      <use xlink:href="#DejaVuSans-20" transform="translate(366.845703 0)"/>
      <use xlink:href="#DejaVuSans-72" transform="translate(398.632812 0)"/>
      <use xlink:href="#DejaVuSans-6f" transform="translate(437.496094 0)"/>
      <use xlink:href="#DejaVuSans-77" transform="translate(498.677734 0)"/>
      <use xlink:href="#DejaVuSans-73" transform="translate(580.464844 0)"/>
     </g>
    </g>
   </g>
   <g id="patch_31">
    <path d="M 441.553125 273.688 
L 441.553125 63.888 
" style="fill: none; stroke: #000000; stroke-width: 0.8; stroke-linejoin: miter; stroke-linecap: square"/>
   </g>
   <g id="patch_32">
    <path d="M 441.553125 273.688 
L 791.633125 273.688 
" style="fill: none; stroke: #000000; stroke-width: 0.8; stroke-linejoin: miter; stroke-linecap: square"/>
   </g>
   <g id="patch_33">
    <path d="M 717.423286 121.531072 
Q 733.107109 196.632087 748.516666 270.419795 
" style="fill: none; stroke: #333333; stroke-width: 1.2; stroke-linecap: round"/>
    <path d="M 749.542719 266.527853 
L 748.516666 270.419795 
L 746.018744 267.263787 
" style="fill: none; stroke: #333333; stroke-width: 1.2; stroke-linecap: round"/>
   </g>
   <g id="text_33">
    <!-- fold 4 has no class 3 -->
    <g transform="translate(669.635549 115.699074) scale(0.09 -0.09)">
     <defs>
      <path id="DejaVuSans-6e" d="M 3513 2113 
L 3513 0 
L 2938 0 
L 2938 2094 
Q 2938 2591 2744 2837 
Q 2550 3084 2163 3084 
Q 1697 3084 1428 2787 
Q 1159 2491 1159 1978 
L 1159 0 
L 581 0 
L 581 3500 
L 1159 3500 
L 1159 2956 
Q 1366 3272 1645 3428 
Q 1925 3584 2291 3584 
Q 2894 3584 3203 3211 
Q 3513 2838 3513 2113 
z
" transform="scale(0.015625)"/>
     </defs>
     <use xlink:href="#DejaVuSans-66"/>
     <use xlink:href="#DejaVuSans-6f" transform="translate(35.205078 0)"/>
     <use xlink:href="#DejaVuSans-6c" transform="translate(96.386719 0)"/>
     <use xlink:href="#DejaVuSans-64" transform="translate(124.169922 0)"/>
     <use xlink:href="#DejaVuSans-20" transform="translate(187.646484 0)"/>
     <use xlink:href="#DejaVuSans-34" transform="translate(219.433594 0)"/>
     <use xlink:href="#DejaVuSans-20" transform="translate(283.056641 0)"/>
     <use xlink:href="#DejaVuSans-68" transform="translate(314.84375 0)"/>
     <use xlink:href="#DejaVuSans-61" transform="translate(378.222656 0)"/>
     <use xlink:href="#DejaVuSans-73" transform="translate(439.501953 0)"/>
     <use xlink:href="#DejaVuSans-20" transform="translate(491.601562 0)"/>
     <use xlink:href="#DejaVuSans-6e" transform="translate(523.388672 0)"/>
     <use xlink:href="#DejaVuSans-6f" transform="translate(586.767578 0)"/>
     <use xlink:href="#DejaVuSans-20" transform="translate(647.949219 0)"/>
     <use xlink:href="#DejaVuSans-63" transform="translate(679.736328 0)"/>
     <use xlink:href="#DejaVuSans-6c" transform="translate(734.716797 0)"/>
     <use xlink:href="#DejaVuSans-61" transform="translate(762.5 0)"/>
     <use xlink:href="#DejaVuSans-73" transform="translate(823.779297 0)"/>
     <use xlink:href="#DejaVuSans-73" transform="translate(875.878906 0)"/>
     <use xlink:href="#DejaVuSans-20" transform="translate(927.978516 0)"/>
     <use xlink:href="#DejaVuSans-33" transform="translate(959.765625 0)"/>
    </g>
   </g>
   <g id="text_34">
    <!-- Actigraphy cohort class counts -->
    <g transform="translate(524.229687 57.888) scale(0.12 -0.12)">
     <defs>
      <path id="DejaVuSans-75" d="M 544 1381 
L 544 3500 
L 1119 3500 
L 1119 1403 
Q 1119 906 1312 657 
Q 1506 409 1894 409 
Q 2359 409 2629 706 
Q 2900 1003 2900 1516 
L 2900 3500 
L 3475 3500 
L 3475 0 
L 2900 0 
L 2900 538 
Q 2691 219 2414 64 
Q 2138 -91 1772 -91 
Q 1169 -91 856 284 
Q 544 659 544 1381 
z
M 1991 3584 
L 1991 3584 
z
" transform="scale(0.015625)"/>
     </defs>
     <use xlink:href="#DejaVuSans-41"/>
     <use xlink:href="#DejaVuSans-63" transform="translate(66.658203 0)"/>
     <use xlink:href="#DejaVuSans-74" transform="translate(121.638672 0)"/>
     <use xlink:href="#DejaVuSans-69" transform="translate(160.847656 0)"/>
     <use xlink:href="#DejaVuSans-67" transform="translate(188.630859 0)"/>
     <use xlink:href="#DejaVuSans-72" transform="translate(252.107422 0)"/>
     <use xlink:href="#DejaVuSans-61" transform="translate(293.220703 0)"/>
     <use xlink:href="#DejaVuSans-70" transform="translate(354.5 0)"/>
     <use xlink:href="#DejaVuSans-68" transform="translate(417.976562 0)"/>
     <use xlink:href="#DejaVuSans-79" transform="translate(481.355469 0)"/>
     <use xlink:href="#DejaVuSans-20" transform="translate(540.535156 0)"/>
     <use xlink:href="#DejaVuSans-63" transform="translate(572.322266 0)"/>
     <use xlink:href="#DejaVuSans-6f" transform="translate(627.302734 0)"/>
     <use xlink:href="#DejaVuSans-68" transform="translate(688.484375 0)"/>
     <use xlink:href="#DejaVuSans-6f" transform="translate(751.863281 0)"/>
     <use xlink:href="#DejaVuSans-72" transform="translate(813.044922 0)"/>
     <use xlink:href="#DejaVuSans-74" transform="translate(854.158203 0)"/>
     <use xlink:href="#DejaVuSans-20" transform="translate(893.367188 0)"/>
     <use xlink:href="#DejaVuSans-63" transform="translate(925.154297 0)"/>
     <use xlink:href="#DejaVuSans-6c" transform="translate(980.134766 0)"/>
     <use xlink:href="#DejaVuSans-61" transform="translate(1007.917969 0)"/>
     <use xlink:href="#DejaVuSans-73" transform="translate(1069.197266 0)"/>
     <use xlink:href="#DejaVuSans-73" transform="translate(1121.296875 0)"/>
     <use xlink:href="#DejaVuSans-20" transform="translate(1173.396484 0)"/>
     <use xlink:href="#DejaVuSans-63" transform="translate(1205.183594 0)"/>
     <use xlink:href="#DejaVuSans-6f" transform="translate(1260.164062 0)"/>
     <use xlink:href="#DejaVuSans-75" transform="translate(1321.345703 0)"/>
     <use xlink:href="#DejaVuSans-6e" transform="translate(1384.724609 0)"/>
     <use xlink:href="#DejaVuSans-74" transform="translate(1448.103516 0)"/>
     <use xlink:href="#DejaVuSans-73" transform="translate(1487.3125 0)"/>
    </g>
   </g>
   <g id="legend_2">
    <g id="patch_34">
     <path d="M 637.905 80.486438 
L 657.905 80.486438 
L 657.905 73.486438 
L 637.905 73.486438 
z
" style="fill: #4c78a8; opacity: 0.9"/>
    </g>
    <g id="text_35">
     <!-- class 0 -->
     <g transform="translate(665.905 80.486438) scale(0.1 -0.1)">
      <use xlink:href="#DejaVuSans-63"/>
      <use xlink:href="#DejaVuSans-6c" transform="translate(54.980469 0)"/>
      <use xlink:href="#DejaVuSans-61" transform="translate(82.763672 0)"/>
      <use xlink:href="#DejaVuSans-73" transform="translate(144.042969 0)"/>
      <use xlink:href="#DejaVuSans-73" transform="translate(196.142578 0)"/>
      <use xlink:href="#DejaVuSans-20" transform="translate(248.242188 0)"/>
      <use xlink:href="#DejaVuSans-30" transform="translate(280.029297 0)"/>
     </g>
    </g>
    <g id="patch_35">
     <path d="M 637.905 95.164563 
L 657.905 95.164563 
L 657.905 88.164563 
L 637.905 88.164563 
z
" style="fill: #f58518; opacity: 0.9"/>
    </g>
    <g id="text_36">
     <!-- class 1 -->
     <g transform="translate(665.905 95.164563) scale(0.1 -0.1)">
      <use xlink:href="#DejaVuSans-63"/>
      <use xlink:href="#DejaVuSans-6c" transform="translate(54.980469 0)"/>
      <use xlink:href="#DejaVuSans-61" transform="translate(82.763672 0)"/>
      <use xlink:href="#DejaVuSans-73" transform="translate(144.042969 0)"/>
      <use xlink:href="#DejaVuSans-73" transform="translate(196.142578 0)"/>
      <use xlink:href="#DejaVuSans-20" transform="translate(248.242188 0)"/>
      <use xlink:href="#DejaVuSans-31" transform="translate(280.029297 0)"/>
     </g>
    </g>
    <g id="patch_36">
     <path d="M 720.269063 80.486438 
L 740.269063 80.486438 
L 740.269063 73.486438 
L 720.269063 73.486438 
z
" style="fill: #54a24b; opacity: 0.9"/>
    </g>
    <g id="text_37">
     <!-- class 2 -->
     <g transform="translate(748.269063 80.486438) scale(0.1 -0.1)">
      <use xlink:href="#DejaVuSans-63"/>
      <use xlink:href="#DejaVuSans-6c" transform="translate(54.980469 0)"/>
      <use xlink:href="#DejaVuSans-61" transform="translate(82.763672 0)"/>
      <use xlink:href="#DejaVuSans-73" transform="translate(144.042969 0)"/>
      <use xlink:href="#DejaVuSans-73" transform="translate(196.142578 0)"/>
      <use xlink:href="#DejaVuSans-20" transform="translate(248.242188 0)"/>
      <use xlink:href="#DejaVuSans-32" transform="translate(280.029297 0)"/>
     </g>
    </g>
    <g id="patch_37">
     <path d="M 720.269063 95.164563 
L 740.269063 95.164563 
L 740.269063 88.164563 
L 720.269063 88.164563 
z
" style="fill: #e45756; opacity: 0.9"/>
    </g>
    <g id="text_38">
     <!-- class 3 -->
     <g transform="translate(748.269063 95.164563) scale(0.1 -0.1)">
      <use xlink:href="#DejaVuSans-63"/>
      <use xlink:href="#DejaVuSans-6c" transform="translate(54.980469 0)"/>
      <use xlink:href="#DejaVuSans-61" transform="translate(82.763672 0)"/>
      <use xlink:href="#DejaVuSans-73" transform="translate(144.042969 0)"/>
      <use xlink:href="#DejaVuSans-73" transform="translate(196.142578 0)"/>
      <use xlink:href="#DejaVuSans-20" transform="translate(248.242188 0)"/>
      <use xlink:href="#DejaVuSans-33" transform="translate(280.029297 0)"/>
     </g>
    </g>
   </g>
  </g>
  <g id="text_39">
   <!-- A5: actigraphy coverage and class sparsity -->
   <g transform="translate(269.830938 16.318125) scale(0.12 -0.12)">
    <defs>
     <path id="DejaVuSans-3a" d="M 750 794 
L 1409 794 
L 1409 0 
L 750 0 
L 750 794 
z
M 750 3309 
L 1409 3309 
L 1409 2516 
L 750 2516 
L 750 3309 
z
" transform="scale(0.015625)"/>
    </defs>
    <use xlink:href="#DejaVuSans-41"/>
    <use xlink:href="#DejaVuSans-35" transform="translate(68.408203 0)"/>
    <use xlink:href="#DejaVuSans-3a" transform="translate(132.03125 0)"/>
    <use xlink:href="#DejaVuSans-20" transform="translate(165.722656 0)"/>
    <use xlink:href="#DejaVuSans-61" transform="translate(197.509766 0)"/>
    <use xlink:href="#DejaVuSans-63" transform="translate(258.789062 0)"/>
    <use xlink:href="#DejaVuSans-74" transform="translate(313.769531 0)"/>
    <use xlink:href="#DejaVuSans-69" transform="translate(352.978516 0)"/>
    <use xlink:href="#DejaVuSans-67" transform="translate(380.761719 0)"/>
    <use xlink:href="#DejaVuSans-72" transform="translate(444.238281 0)"/>
    <use xlink:href="#DejaVuSans-61" transform="translate(485.351562 0)"/>
    <use xlink:href="#DejaVuSans-70" transform="translate(546.630859 0)"/>
    <use xlink:href="#DejaVuSans-68" transform="translate(610.107422 0)"/>
    <use xlink:href="#DejaVuSans-79" transform="translate(673.486328 0)"/>
    <use xlink:href="#DejaVuSans-20" transform="translate(732.666016 0)"/>
    <use xlink:href="#DejaVuSans-63" transform="translate(764.453125 0)"/>
    <use xlink:href="#DejaVuSans-6f" transform="translate(819.433594 0)"/>
    <use xlink:href="#DejaVuSans-76" transform="translate(880.615234 0)"/>
    <use xlink:href="#DejaVuSans-65" transform="translate(939.794922 0)"/>
    <use xlink:href="#DejaVuSans-72" transform="translate(1001.318359 0)"/>
    <use xlink:href="#DejaVuSans-61" transform="translate(1042.431641 0)"/>
    <use xlink:href="#DejaVuSans-67" transform="translate(1103.710938 0)"/>
    <use xlink:href="#DejaVuSans-65" transform="translate(1167.1875 0)"/>
    <use xlink:href="#DejaVuSans-20" transform="translate(1228.710938 0)"/>
    <use xlink:href="#DejaVuSans-61" transform="translate(1260.498047 0)"/>
    <use xlink:href="#DejaVuSans-6e" transform="translate(1321.777344 0)"/>
    <use xlink:href="#DejaVuSans-64" transform="translate(1385.15625 0)"/>
    <use xlink:href="#DejaVuSans-20" transform="translate(1448.632812 0)"/>
    <use xlink:href="#DejaVuSans-63" transform="translate(1480.419922 0)"/>
    <use xlink:href="#DejaVuSans-6c" transform="translate(1535.400391 0)"/>
    <use xlink:href="#DejaVuSans-61" transform="translate(1563.183594 0)"/>
    <use xlink:href="#DejaVuSans-73" transform="translate(1624.462891 0)"/>
    <use xlink:href="#DejaVuSans-73" transform="translate(1676.5625 0)"/>
    <use xlink:href="#DejaVuSans-20" transform="translate(1728.662109 0)"/>
    <use xlink:href="#DejaVuSans-73" transform="translate(1760.449219 0)"/>
    <use xlink:href="#DejaVuSans-70" transform="translate(1812.548828 0)"/>
    <use xlink:href="#DejaVuSans-61" transform="translate(1876.025391 0)"/>
    <use xlink:href="#DejaVuSans-72" transform="translate(1937.304688 0)"/>
    <use xlink:href="#DejaVuSans-73" transform="translate(1978.417969 0)"/>
    <use xlink:href="#DejaVuSans-69" transform="translate(2030.517578 0)"/>
    <use xlink:href="#DejaVuSans-74" transform="translate(2058.300781 0)"/>
    <use xlink:href="#DejaVuSans-79" transform="translate(2097.509766 0)"/>
   </g>
  </g>
 </g>
 <defs>
  <clipPath id="p8c513cd14c">
   <rect x="40.603125" y="63.888" width="350.08" height="209.8"/>
  </clipPath>
  <clipPath id="p19bcf19838">
   <rect x="441.553125" y="63.888" width="350.08" height="209.8"/>
  </clipPath>
 </defs>
</svg>
